<svg viewBox="0 0 55.843669739999996 53.73007243799999" version="1.1" id="svg9965" xmlns:xlink="http://www.w3.org/1999/xlink" xmlns="http://www.w3.org/2000/svg" style="max-height: 500px" width="55.843669739999996" height="53.73007243799999">
  <metadata id="metadata9971">
    
      
        image/svg+xml
        
        
      
    
  </metadata>
  <defs id="defs9969">
    <linearGradient gradientUnits="userSpaceOnUse" y2="-6966.9307" x2="42575.336" y1="-7078.7891" x1="42519.285" id="linearGradient6918" xlink:href="#linearGradient6924"/>
    <linearGradient id="linearGradient6924">
      <stop id="stop6920" offset="0" style="stop-color: rgb(255, 255, 255); stop-opacity: 0; --darkreader-inline-stopcolor: #e8e6e3;" data-darkreader-inline-stopcolor=""/>
      <stop style="stop-color: rgb(255, 255, 255); stop-opacity: 0.5; --darkreader-inline-stopcolor: #e8e6e3;" offset="0.49517274" id="stop6926" data-darkreader-inline-stopcolor=""/>
      <stop id="stop6922" offset="1" style="stop-color: rgb(253, 254, 255); stop-opacity: 1; --darkreader-inline-stopcolor: #cbe8ff;" data-darkreader-inline-stopcolor=""/>
    </linearGradient>
  </defs>
  
  
  
  
  
  <g id="g6933" transform="matrix(1.2056422,0,0,1.2056422,-13535.014,2271.0633)">
    <path id="path6733" style="opacity: 0.5; vector-effect: none; fill: url(&quot;#linearGradient6918&quot;); fill-opacity: 1; stroke: none; stroke-width: 3.67846px; stroke-linecap: butt; stroke-linejoin: miter; stroke-miterlimit: 2; stroke-dasharray: none; stroke-dashoffset: 0px; stroke-opacity: 1; paint-order: stroke markers; --darkreader-inline-stroke: none;" d="m 42519.285,-7078.7891 a 0.76086879,0.56791688 0 0 0 -0.738,0.6739 l 33.586,125.8886 a 87.182358,87.182358 0 0 0 39.381,-33.7636 l -71.565,-92.5196 a 0.76086879,0.56791688 0 0 0 -0.664,-0.2793 z" transform="scale(0.26458333)" data-darkreader-inline-stroke=""/>
    <path id="circle6810" style="opacity: 1; fill: rgb(255, 255, 255); fill-opacity: 1; stroke: none; stroke-width: 2.01453px; stroke-opacity: 1; paint-order: stroke markers; --darkreader-inline-fill: #e8e6e3; --darkreader-inline-stroke: none;" d="m 42517.32,-7119.4805 a 87.182358,87.182358 0 0 0 -86.855,87.1817 87.182358,87.182358 0 0 0 13.312,46.3047 l 72.688,-93.9727 a 1.3609979,1.0158567 0 0 1 2.359,0 l 72.692,93.9766 a 87.182358,87.182358 0 0 0 13.314,-46.3086 87.182358,87.182358 0 0 0 -87.182,-87.1817 87.182358,87.182358 0 0 0 -0.328,0 z" transform="scale(0.26458333)" data-darkreader-inline-fill="" data-darkreader-inline-stroke=""/>
  </g>
</svg>