<svg xmlns="http://www.w3.org/2000/svg" xmlns:xlink="http://www.w3.org/1999/xlink" id="svg1468" version="1.1" viewBox="0 0.10596880417199998 4.2501987994688 4.089349360998" style="max-height: 500px" width="4.2501987994688" height="4.089349360998">
  <title id="title16">Codeberg logo</title>
  <defs id="defs1462">
    <linearGradient gradientUnits="userSpaceOnUse" y2="-6966.9307" x2="42575.336" y1="-7078.7891" x1="42519.285" id="linearGradient6918" xlink:href="#linearGradient6924"/>
    <linearGradient id="linearGradient6924">
      <stop id="stop6920" offset="0" style="stop-color:#2185d0;stop-opacity:0"/>
      <stop style="stop-color:#2185d0;stop-opacity:0.48923996" offset="0.49517274" id="stop6926"/>
      <stop id="stop6922" offset="1" style="stop-color:#2185d0;stop-opacity:0.63279623"/>
    </linearGradient>
    <linearGradient gradientUnits="userSpaceOnUse" y2="-6966.9307" x2="42575.336" y1="-7078.7891" x1="42519.285" id="linearGradient6918-3" xlink:href="#linearGradient6924-6"/>
    <linearGradient id="linearGradient6924-6">
      <stop id="stop6920-7" offset="0" style="stop-color:#2185d0;stop-opacity:0;"/>
      <stop style="stop-color:#2185d0;stop-opacity:0.30000001;" offset="0.49517274" id="stop6926-5"/>
      <stop id="stop6922-3" offset="1" style="stop-color:#2185d0;stop-opacity:0.30000001;"/>
    </linearGradient>
  </defs>
  
    
  
  <metadata id="metadata1465">
    
      
        image/svg+xml
        
        Codeberg logo
        
        
          
            Robert Martinez
          
        
        
          
            Codeberg and the Codeberg Logo are trademarks of Codeberg e.V.
          
        
        2020-04-09
        
          
            Codeberg e.V.
          
        
        codeberg.org
      
      
        
        
        
      
    
  </metadata>
  <g transform="matrix(0.06551432,0,0,0.06551432,-2.232417,-1.431776)" id="g370484">
    <path transform="matrix(0.37058478,0,0,0.37058478,-15690.065,2662.0533)" d="m 42519.285,-7078.7891 a 0.76086879,0.56791688 0 0 0 -0.738,0.6739 l 33.586,125.8886 a 87.182358,87.182358 0 0 0 39.381,-33.7636 l -71.565,-92.5196 a 0.76086879,0.56791688 0 0 0 -0.664,-0.2793 z" style="font-variation-settings:normal;opacity:1;vector-effect:none;fill:url(#linearGradient6918-3);fill-opacity:1;stroke:none;stroke-width:3.67846;stroke-linecap:butt;stroke-linejoin:miter;stroke-miterlimit:2;stroke-dasharray:none;stroke-dashoffset:0;stroke-opacity:1;paint-order:stroke markers fill;stop-color:#000000;stop-opacity:1" id="path6733-5"/>
    <path transform="matrix(1.4006354,0,0,1.4006354,-15690.065,2662.0533)" d="m 11249.461,-1883.6961 c -12.74,0 -23.067,10.3275 -23.067,23.0671 0,4.3335 1.22,8.5795 3.522,12.2514 l 19.232,-24.8636 c 0.138,-0.1796 0.486,-0.1796 0.624,0 l 19.233,24.8646 c 2.302,-3.6721 3.523,-7.9185 3.523,-12.2524 0,-12.7396 -10.327,-23.0671 -23.067,-23.0671 z" style="opacity:1;fill:#2185d0;fill-opacity:1;stroke-width:17.0055;paint-order:markers fill stroke;stop-color:#000000" id="path360787"/>
  </g>
</svg>